<svg width="413" height="219" viewBox="0 0 413 219" fill="none" xmlns="http://www.w3.org/2000/svg">
<path d="M181.974 11.5801L163.025 47.3109L120.772 30.1126L126.62 67.7968L78.2437 69.9514L107.321 99.4916L65.7839 120.422L110.3 133.903L86.7315 168L134.758 161.81L135.474 199.938L174.142 175.735L198.95 207.678L217.899 171.947L260.152 189.145L254.304 151.461L302.68 149.306L273.603 119.766L315.14 98.8359L270.624 85.355L294.193 51.2575L246.166 57.4481L245.451 19.3196L206.782 43.523L181.974 11.5801Z" fill="#ED1C24"/>
<mask id="path-2-outside-1_60_21" maskUnits="userSpaceOnUse" x="3" y="79" width="410" height="77" fill="black">
<rect fill="white" x="3" y="79" width="410" height="77"/>
<path d="M30.3963 152H6.10825V83.84H30.3963C52.6683 83.84 65.7243 98.816 65.7243 117.92C65.7243 137.024 52.6683 152 30.3963 152ZM22.4283 98.624V137.216H30.3963C41.3403 137.216 49.4043 131.552 49.4043 117.92C49.4043 104.288 41.3403 98.624 30.3963 98.624H22.4283ZM136.129 152H118.465L113.953 138.368H89.569L85.153 152H68.257L92.737 83.84H111.361L136.129 152ZM93.793 124.928H109.537C103.393 106.112 101.761 99.872 101.473 94.88C101.185 99.872 99.745 106.208 93.793 124.928ZM171.393 83.84H189.633L165.825 124.832V152H149.505V124.832L125.697 83.84H144.321C152.289 98.048 156.225 105.728 157.857 111.008C159.585 105.728 163.521 98.048 171.393 83.84ZM247.619 152.96C227.267 152.96 212.579 138.272 212.579 117.92C212.579 97.568 227.267 82.88 247.619 82.88C267.971 82.88 282.659 97.568 282.659 117.92C282.659 138.272 267.971 152.96 247.619 152.96ZM247.619 137.6C258.851 137.6 266.339 128.672 266.339 117.92C266.339 107.168 258.851 98.24 247.619 98.24C236.387 98.24 228.899 107.168 228.899 117.92C228.899 128.672 236.387 137.6 247.619 137.6ZM336.592 83.84H352.528V152H337.36L307.12 110.048C307.792 116.192 307.888 127.328 307.888 152H291.952V83.84H307.12L337.264 126.368C336.688 120.128 336.592 108.896 336.592 83.84ZM409.541 83.84V98.624H380.741V110.624H404.741V125.024H380.741V137.216H409.541V152H364.421V83.84H409.541Z"/>
</mask>
<path d="M30.3963 152H6.10825V83.84H30.3963C52.6683 83.84 65.7243 98.816 65.7243 117.92C65.7243 137.024 52.6683 152 30.3963 152ZM22.4283 98.624V137.216H30.3963C41.3403 137.216 49.4043 131.552 49.4043 117.92C49.4043 104.288 41.3403 98.624 30.3963 98.624H22.4283ZM136.129 152H118.465L113.953 138.368H89.569L85.153 152H68.257L92.737 83.84H111.361L136.129 152ZM93.793 124.928H109.537C103.393 106.112 101.761 99.872 101.473 94.88C101.185 99.872 99.745 106.208 93.793 124.928ZM171.393 83.84H189.633L165.825 124.832V152H149.505V124.832L125.697 83.84H144.321C152.289 98.048 156.225 105.728 157.857 111.008C159.585 105.728 163.521 98.048 171.393 83.84ZM247.619 152.96C227.267 152.96 212.579 138.272 212.579 117.92C212.579 97.568 227.267 82.88 247.619 82.88C267.971 82.88 282.659 97.568 282.659 117.92C282.659 138.272 267.971 152.96 247.619 152.96ZM247.619 137.6C258.851 137.6 266.339 128.672 266.339 117.92C266.339 107.168 258.851 98.24 247.619 98.24C236.387 98.24 228.899 107.168 228.899 117.92C228.899 128.672 236.387 137.6 247.619 137.6ZM336.592 83.84H352.528V152H337.36L307.12 110.048C307.792 116.192 307.888 127.328 307.888 152H291.952V83.84H307.12L337.264 126.368C336.688 120.128 336.592 108.896 336.592 83.84ZM409.541 83.84V98.624H380.741V110.624H404.741V125.024H380.741V137.216H409.541V152H364.421V83.84H409.541Z" fill="white"/>
<path d="M6.10825 152H3.10825V155H6.10825V152ZM6.10825 83.84V80.84H3.10825V83.84H6.10825ZM22.4283 98.624V95.624H19.4283V98.624H22.4283ZM22.4283 137.216H19.4283V140.216H22.4283V137.216ZM30.3963 149H6.10825V155H30.3963V149ZM9.10825 152V83.84H3.10825V152H9.10825ZM6.10825 86.84H30.3963V80.84H6.10825V86.84ZM30.3963 86.84C40.8345 86.84 48.8618 90.3329 54.2764 95.8226C59.7047 101.326 62.7243 109.057 62.7243 117.92H68.7243C68.7243 107.679 65.2158 98.3696 58.5482 91.6094C51.8667 84.8351 42.23 80.84 30.3963 80.84V86.84ZM62.7243 117.92C62.7243 126.783 59.7047 134.514 54.2764 140.017C48.8618 145.507 40.8345 149 30.3963 149V155C42.23 155 51.8667 151.005 58.5482 144.231C65.2158 137.47 68.7243 128.161 68.7243 117.92H62.7243ZM19.4283 98.624V137.216H25.4283V98.624H19.4283ZM22.4283 140.216H30.3963V134.216H22.4283V140.216ZM30.3963 140.216C36.3498 140.216 41.9279 138.675 46.0378 134.886C50.192 131.056 52.4043 125.338 52.4043 117.92H46.4043C46.4043 124.134 44.5845 128.064 41.9707 130.474C39.3126 132.925 35.3867 134.216 30.3963 134.216V140.216ZM52.4043 117.92C52.4043 110.502 50.192 104.784 46.0378 100.954C41.9279 97.1651 36.3498 95.624 30.3963 95.624V101.624C35.3867 101.624 39.3126 102.915 41.9707 105.366C44.5845 107.776 46.4043 111.706 46.4043 117.92H52.4043ZM30.3963 95.624H22.4283V101.624H30.3963V95.624ZM136.129 152V155H140.411L138.949 150.975L136.129 152ZM118.465 152L115.617 152.943L116.298 155H118.465V152ZM113.953 138.368L116.801 137.425L116.12 135.368H113.953V138.368ZM89.569 138.368V135.368H87.3874L86.715 137.443L89.569 138.368ZM85.153 152V155H87.3347L88.007 152.925L85.153 152ZM68.257 152L65.4336 150.986L63.9919 155H68.257V152ZM92.737 83.84V80.84H90.6268L89.9136 82.826L92.737 83.84ZM111.361 83.84L114.181 82.8154L113.463 80.84H111.361V83.84ZM93.793 124.928L90.934 124.019L89.6912 127.928H93.793V124.928ZM109.537 124.928V127.928H113.672L112.389 123.997L109.537 124.928ZM101.473 94.88L104.468 94.7072L98.478 94.7072L101.473 94.88ZM136.129 149H118.465V155H136.129V149ZM121.313 151.057L116.801 137.425L111.105 139.311L115.617 152.943L121.313 151.057ZM113.953 135.368H89.569V141.368H113.953V135.368ZM86.715 137.443L82.299 151.075L88.007 152.925L92.423 139.293L86.715 137.443ZM85.153 149H68.257V155H85.153V149ZM71.0804 153.014L95.5604 84.854L89.9136 82.826L65.4336 150.986L71.0804 153.014ZM92.737 86.84H111.361V80.84H92.737V86.84ZM108.541 84.8646L133.309 153.025L138.949 150.975L114.181 82.8154L108.541 84.8646ZM93.793 127.928H109.537V121.928H93.793V127.928ZM112.389 123.997C106.205 105.059 104.729 99.2277 104.468 94.7072L98.478 95.0528C98.7932 100.516 100.581 107.165 106.685 125.859L112.389 123.997ZM98.478 94.7072C98.2154 99.2594 96.906 105.236 90.934 124.019L96.652 125.837C102.584 107.18 104.155 100.485 104.468 95.0528L98.478 94.7072ZM171.393 83.84V80.84H169.625L168.768 82.3861L171.393 83.84ZM189.633 83.84L192.227 85.3467L194.844 80.84H189.633V83.84ZM165.825 124.832L163.23 123.325L162.825 124.024V124.832H165.825ZM165.825 152V155H168.825V152H165.825ZM149.505 152H146.505V155H149.505V152ZM149.505 124.832H152.505V124.024L152.099 123.325L149.505 124.832ZM125.697 83.84V80.84H120.485L123.102 85.3467L125.697 83.84ZM144.32 83.84L146.937 82.3726L146.078 80.84H144.32V83.84ZM157.857 111.008L154.99 111.894L157.775 120.903L160.708 111.941L157.857 111.008ZM171.393 86.84H189.633V80.84H171.393V86.84ZM187.038 82.3333L163.23 123.325L168.419 126.339L192.227 85.3467L187.038 82.3333ZM162.825 124.832V152H168.825V124.832H162.825ZM165.825 149H149.505V155H165.825V149ZM152.505 152V124.832H146.505V152H152.505ZM152.099 123.325L128.291 82.3333L123.102 85.3467L146.91 126.339L152.099 123.325ZM125.697 86.84H144.32V80.84H125.697V86.84ZM141.704 85.3074C149.718 99.597 153.471 106.98 154.99 111.894L160.723 110.122C158.978 104.476 154.859 96.499 146.937 82.3726L141.704 85.3074ZM160.708 111.941C162.329 106.988 166.103 99.5774 174.017 85.2939L168.768 82.3861C160.938 96.5186 156.84 104.468 155.005 110.075L160.708 111.941ZM247.619 149.96C228.924 149.96 215.579 136.615 215.579 117.92H209.579C209.579 139.929 225.61 155.96 247.619 155.96V149.96ZM215.579 117.92C215.579 99.2249 228.924 85.88 247.619 85.88V79.88C225.61 79.88 209.579 95.9111 209.579 117.92H215.579ZM247.619 85.88C266.314 85.88 279.659 99.2249 279.659 117.92H285.659C285.659 95.9111 269.628 79.88 247.619 79.88V85.88ZM279.659 117.92C279.659 136.615 266.314 149.96 247.619 149.96V155.96C269.628 155.96 285.659 139.929 285.659 117.92H279.659ZM247.619 140.6C260.75 140.6 269.339 130.076 269.339 117.92H263.339C263.339 127.268 256.952 134.6 247.619 134.6V140.6ZM269.339 117.92C269.339 105.764 260.75 95.24 247.619 95.24V101.24C256.952 101.24 263.339 108.572 263.339 117.92H269.339ZM247.619 95.24C234.488 95.24 225.899 105.764 225.899 117.92H231.899C231.899 108.572 238.286 101.24 247.619 101.24V95.24ZM225.899 117.92C225.899 130.076 234.488 140.6 247.619 140.6V134.6C238.286 134.6 231.899 127.268 231.899 117.92H225.899ZM336.592 83.84V80.84H333.592V83.84H336.592ZM352.528 83.84H355.528V80.84H352.528V83.84ZM352.528 152V155H355.528V152H352.528ZM337.36 152L334.926 153.754L335.824 155H337.36V152ZM307.12 110.048L309.554 108.294L302.901 99.0642L304.138 110.374L307.12 110.048ZM307.888 152V155H310.888V152H307.888ZM291.952 152H288.952V155H291.952V152ZM291.952 83.84V80.84H288.952V83.84H291.952ZM307.12 83.84L309.568 82.1052L308.671 80.84H307.12V83.84ZM337.264 126.368L334.816 128.103L341.278 137.22L340.251 126.092L337.264 126.368ZM336.592 86.84H352.528V80.84H336.592V86.84ZM349.528 83.84V152H355.528V83.84H349.528ZM352.528 149H337.36V155H352.528V149ZM339.794 150.246L309.554 108.294L304.686 111.802L334.926 153.754L339.794 150.246ZM304.138 110.374C304.787 116.311 304.888 127.23 304.888 152H310.888C310.888 127.426 310.797 116.073 310.102 109.722L304.138 110.374ZM307.888 149H291.952V155H307.888V149ZM294.952 152V83.84H288.952V152H294.952ZM291.952 86.84H307.12V80.84H291.952V86.84ZM304.672 85.5748L334.816 128.103L339.712 124.633L309.568 82.1052L304.672 85.5748ZM340.251 126.092C339.691 120.027 339.592 108.975 339.592 83.84H333.592C333.592 108.817 333.685 120.229 334.277 126.644L340.251 126.092ZM409.541 83.84H412.541V80.84H409.541V83.84ZM409.541 98.624V101.624H412.541V98.624H409.541ZM380.741 98.624V95.624H377.741V98.624H380.741ZM380.741 110.624H377.741V113.624H380.741V110.624ZM404.741 110.624H407.741V107.624H404.741V110.624ZM404.741 125.024V128.024H407.741V125.024H404.741ZM380.741 125.024V122.024H377.741V125.024H380.741ZM380.741 137.216H377.741V140.216H380.741V137.216ZM409.541 137.216H412.541V134.216H409.541V137.216ZM409.541 152V155H412.541V152H409.541ZM364.421 152H361.421V155H364.421V152ZM364.421 83.84V80.84H361.421V83.84H364.421ZM406.541 83.84V98.624H412.541V83.84H406.541ZM409.541 95.624H380.741V101.624H409.541V95.624ZM377.741 98.624V110.624H383.741V98.624H377.741ZM380.741 113.624H404.741V107.624H380.741V113.624ZM401.741 110.624V125.024H407.741V110.624H401.741ZM404.741 122.024H380.741V128.024H404.741V122.024ZM377.741 125.024V137.216H383.741V125.024H377.741ZM380.741 140.216H409.541V134.216H380.741V140.216ZM406.541 137.216V152H412.541V137.216H406.541ZM409.541 149H364.421V155H409.541V149ZM367.421 152V83.84H361.421V152H367.421ZM364.421 86.84H409.541V80.84H364.421V86.84Z" fill="black" mask="url(#path-2-outside-1_60_21)"/>
</svg>
