<svg width="385" height="113" viewBox="0 0 385 113" fill="none" xmlns="http://www.w3.org/2000/svg">
<rect width="385" height="113" rx="56.5" fill="black"/>
<path d="M98.4255 48H89.0815V25.28H97.8495C102.682 25.28 105.466 27.264 105.466 30.944C105.466 33.728 104.026 35.168 102.49 35.68C104.986 36.128 106.746 38.368 106.746 41.184C106.746 45.088 103.898 48 98.4255 48ZM93.7215 29.248V34.496H97.8495C99.6095 34.496 100.794 33.632 100.794 31.872C100.794 30.144 99.6095 29.248 97.8495 29.248H93.7215ZM93.7215 38.016V44.032H98.4255C100.666 44.032 102.074 42.88 102.074 41.088C102.074 39.2 100.666 38.016 98.4895 38.016H93.7215ZM124.612 25.28V29.472H114.628V34.496H122.852V38.592H114.628V43.808H124.612V48H109.988V25.28H124.612ZM154.742 48H149.718L148.022 43.008H139.51C138.998 44.512 138.454 46.144 137.846 48H133.046L141.206 25.28H146.486L154.742 48ZM140.758 39.2H146.742C144.406 32.16 143.83 30.08 143.67 28.448C143.542 30.08 142.998 32.192 140.758 39.2ZM164.144 25.28H173.328C178.16 25.28 181.744 28 181.744 32.928C181.744 37.76 178.16 40.832 173.072 40.832H168.784V48H164.144V25.28ZM168.784 36.576H173.328C175.504 36.576 177.104 35.328 177.104 33.056C177.104 30.784 175.504 29.504 173.328 29.504H168.784V36.576ZM202.836 48H197.812L196.116 43.008H187.604C187.092 44.512 186.548 46.144 185.94 48H181.14L189.3 25.28H194.58L202.836 48ZM188.852 39.2H194.836C192.5 32.16 191.924 30.08 191.764 28.448C191.636 30.08 191.092 32.192 188.852 39.2ZM223.342 48H217.678L209.966 38.336C210.222 39.744 210.222 42.688 210.222 48H205.582V25.28H214.894C219.854 25.28 222.926 27.84 222.926 32.288C222.926 37.344 218.894 39.264 215.886 39.36C217.102 40.64 219.086 43.008 223.342 48ZM218.286 32.704C218.286 30.752 216.974 29.472 214.574 29.472H210.222V36.032H214.574C216.974 36.032 218.286 34.72 218.286 32.704ZM235.898 48H231.258V29.472H225.306V25.28H241.85V29.472H235.898V48ZM262.363 48.32C255.643 48.32 250.747 43.392 250.747 36.64C250.747 29.888 255.643 24.96 262.363 24.96C269.083 24.96 273.979 29.888 273.979 36.64C273.979 43.392 269.083 48.32 262.363 48.32ZM262.363 43.968C266.491 43.968 269.339 40.672 269.339 36.64C269.339 32.608 266.491 29.312 262.363 29.312C258.267 29.312 255.387 32.608 255.387 36.64C255.387 40.672 258.267 43.968 262.363 43.968ZM281.94 48H277.3V25.28H291.38V29.504H281.94V34.784H290.26V38.88H281.94V48ZM85.648 84H81.008V65.472H75.056V61.28H91.6V65.472H85.648V84ZM109.232 70.688V61.28H113.872V84H109.232V74.784H99.4403V84H94.8003V61.28H99.4403V70.688H109.232ZM132.831 61.28V65.472H122.847V70.496H131.071V74.592H122.847V79.808H132.831V84H118.207V61.28H132.831ZM153.201 84.32C146.865 84.32 141.809 79.264 141.809 72.64C141.809 66.016 146.865 60.96 153.201 60.96C156.785 60.96 158.993 62.208 159.825 62.848V67.36C159.217 66.688 157.169 65.184 153.777 65.184C149.777 65.184 146.449 68.256 146.449 72.64C146.449 77.024 149.777 80.096 153.777 80.096C157.169 80.096 159.217 78.56 159.825 77.92V82.432C158.993 83.072 156.785 84.32 153.201 84.32ZM174.175 84.32C167.455 84.32 162.559 79.392 162.559 72.64C162.559 65.888 167.455 60.96 174.175 60.96C180.895 60.96 185.791 65.888 185.791 72.64C185.791 79.392 180.895 84.32 174.175 84.32ZM174.175 79.968C178.303 79.968 181.151 76.672 181.151 72.64C181.151 68.608 178.303 65.312 174.175 65.312C170.079 65.312 167.199 68.608 167.199 72.64C167.199 76.672 170.079 79.968 174.175 79.968ZM207.961 84H202.937L201.241 79.008H192.729C192.217 80.512 191.673 82.144 191.065 84H186.265L194.425 61.28H199.705L207.961 84ZM193.977 75.2H199.961C197.625 68.16 197.049 66.08 196.889 64.448C196.761 66.08 196.217 68.192 193.977 75.2ZM224.851 84H210.707V61.28H215.347V79.808H224.851V84ZM232.69 84H228.05V61.28H232.69V84ZM246.523 84H241.883V65.472H235.931V61.28H252.475V65.472H246.523V84ZM260.315 84H255.675V61.28H260.315V84ZM275.3 84.32C268.58 84.32 263.684 79.392 263.684 72.64C263.684 65.888 268.58 60.96 275.3 60.96C282.02 60.96 286.916 65.888 286.916 72.64C286.916 79.392 282.02 84.32 275.3 84.32ZM275.3 79.968C279.428 79.968 282.276 76.672 282.276 72.64C282.276 68.608 279.428 65.312 275.3 65.312C271.204 65.312 268.324 68.608 268.324 72.64C268.324 76.672 271.204 79.968 275.3 79.968ZM305.31 61.28H309.822V84H305.502L294.558 68.704C294.75 70.656 294.782 74.432 294.782 84H290.238V61.28H294.558L305.534 76.736C305.31 74.752 305.31 70.976 305.31 61.28Z" fill="white"/>
</svg>
