<svg width="413" height="109" viewBox="0 0 413 109" fill="none" xmlns="http://www.w3.org/2000/svg">
<mask id="path-1-outside-1_60_21" maskUnits="userSpaceOnUse" x="3" y="9" width="410" height="77" fill="black">
<rect fill="white" x="3" y="9" width="410" height="77"/>
<path d="M30.3963 82H6.10825V13.84H30.3963C52.6683 13.84 65.7243 28.816 65.7243 47.92C65.7243 67.024 52.6683 82 30.3963 82ZM22.4283 28.624V67.216H30.3963C41.3403 67.216 49.4043 61.552 49.4043 47.92C49.4043 34.288 41.3403 28.624 30.3963 28.624H22.4283ZM136.129 82H118.465L113.953 68.368H89.569L85.153 82H68.257L92.737 13.84H111.361L136.129 82ZM93.793 54.928H109.537C103.393 36.112 101.761 29.872 101.473 24.88C101.185 29.872 99.745 36.208 93.793 54.928ZM171.393 13.84H189.633L165.825 54.832V82H149.505V54.832L125.697 13.84H144.321C152.289 28.048 156.225 35.728 157.857 41.008C159.585 35.728 163.521 28.048 171.393 13.84ZM247.619 82.96C227.267 82.96 212.579 68.272 212.579 47.92C212.579 27.568 227.267 12.88 247.619 12.88C267.971 12.88 282.659 27.568 282.659 47.92C282.659 68.272 267.971 82.96 247.619 82.96ZM247.619 67.6C258.851 67.6 266.339 58.672 266.339 47.92C266.339 37.168 258.851 28.24 247.619 28.24C236.387 28.24 228.899 37.168 228.899 47.92C228.899 58.672 236.387 67.6 247.619 67.6ZM336.592 13.84H352.528V82H337.36L307.12 40.048C307.792 46.192 307.888 57.328 307.888 82H291.952V13.84H307.12L337.264 56.368C336.688 50.128 336.592 38.896 336.592 13.84ZM409.541 13.84V28.624H380.741V40.624H404.741V55.024H380.741V67.216H409.541V82H364.421V13.84H409.541Z"/>
</mask>
<path d="M30.3963 82H6.10825V13.84H30.3963C52.6683 13.84 65.7243 28.816 65.7243 47.92C65.7243 67.024 52.6683 82 30.3963 82ZM22.4283 28.624V67.216H30.3963C41.3403 67.216 49.4043 61.552 49.4043 47.92C49.4043 34.288 41.3403 28.624 30.3963 28.624H22.4283ZM136.129 82H118.465L113.953 68.368H89.569L85.153 82H68.257L92.737 13.84H111.361L136.129 82ZM93.793 54.928H109.537C103.393 36.112 101.761 29.872 101.473 24.88C101.185 29.872 99.745 36.208 93.793 54.928ZM171.393 13.84H189.633L165.825 54.832V82H149.505V54.832L125.697 13.84H144.321C152.289 28.048 156.225 35.728 157.857 41.008C159.585 35.728 163.521 28.048 171.393 13.84ZM247.619 82.96C227.267 82.96 212.579 68.272 212.579 47.92C212.579 27.568 227.267 12.88 247.619 12.88C267.971 12.88 282.659 27.568 282.659 47.92C282.659 68.272 267.971 82.96 247.619 82.96ZM247.619 67.6C258.851 67.6 266.339 58.672 266.339 47.92C266.339 37.168 258.851 28.24 247.619 28.24C236.387 28.24 228.899 37.168 228.899 47.92C228.899 58.672 236.387 67.6 247.619 67.6ZM336.592 13.84H352.528V82H337.36L307.12 40.048C307.792 46.192 307.888 57.328 307.888 82H291.952V13.84H307.12L337.264 56.368C336.688 50.128 336.592 38.896 336.592 13.84ZM409.541 13.84V28.624H380.741V40.624H404.741V55.024H380.741V67.216H409.541V82H364.421V13.84H409.541Z" fill="white"/>
<path d="M6.10825 82H3.10825V85H6.10825V82ZM6.10825 13.84V10.84H3.10825V13.84H6.10825ZM22.4283 28.624V25.624H19.4283V28.624H22.4283ZM22.4283 67.216H19.4283V70.216H22.4283V67.216ZM30.3963 79H6.10825V85H30.3963V79ZM9.10825 82V13.84H3.10825V82H9.10825ZM6.10825 16.84H30.3963V10.84H6.10825V16.84ZM30.3963 16.84C40.8345 16.84 48.8618 20.3329 54.2764 25.8226C59.7047 31.3264 62.7243 39.0572 62.7243 47.92H68.7243C68.7243 37.6788 65.2158 28.3696 58.5482 21.6094C51.8667 14.8351 42.23 10.84 30.3963 10.84V16.84ZM62.7243 47.92C62.7243 56.7828 59.7047 64.5136 54.2764 70.0174C48.8618 75.5071 40.8345 79 30.3963 79V85C42.23 85 51.8667 81.0049 58.5482 74.2306C65.2158 67.4704 68.7243 58.1612 68.7243 47.92H62.7243ZM19.4283 28.624V67.216H25.4283V28.624H19.4283ZM22.4283 70.216H30.3963V64.216H22.4283V70.216ZM30.3963 70.216C36.3498 70.216 41.9279 68.6749 46.0378 64.8856C50.192 61.0555 52.4043 55.3384 52.4043 47.92H46.4043C46.4043 54.1336 44.5845 58.0645 41.9707 60.4744C39.3126 62.9251 35.3867 64.216 30.3963 64.216V70.216ZM52.4043 47.92C52.4043 40.5016 50.192 34.7845 46.0378 30.9544C41.9279 27.1651 36.3498 25.624 30.3963 25.624V31.624C35.3867 31.624 39.3126 32.9149 41.9707 35.3656C44.5845 37.7755 46.4043 41.7064 46.4043 47.92H52.4043ZM30.3963 25.624H22.4283V31.624H30.3963V25.624ZM136.129 82V85H140.411L138.949 80.9754L136.129 82ZM118.465 82L115.617 82.9427L116.298 85H118.465V82ZM113.953 68.368L116.801 67.4253L116.12 65.368H113.953V68.368ZM89.569 68.368V65.368H87.3874L86.715 67.4435L89.569 68.368ZM85.153 82V85H87.3347L88.007 82.9245L85.153 82ZM68.257 82L65.4336 80.986L63.9919 85H68.257V82ZM92.737 13.84V10.84H90.6268L89.9136 12.826L92.737 13.84ZM111.361 13.84L114.181 12.8154L113.463 10.84H111.361V13.84ZM93.793 54.928L90.934 54.019L89.6912 57.928H93.793V54.928ZM109.537 54.928V57.928H113.672L112.389 53.9968L109.537 54.928ZM101.473 24.88L104.468 24.7072L98.478 24.7072L101.473 24.88ZM136.129 79H118.465V85H136.129V79ZM121.313 81.0573L116.801 67.4253L111.105 69.3107L115.617 82.9427L121.313 81.0573ZM113.953 65.368H89.569V71.368H113.953V65.368ZM86.715 67.4435L82.299 81.0755L88.007 82.9245L92.423 69.2925L86.715 67.4435ZM85.153 79H68.257V85H85.153V79ZM71.0804 83.014L95.5604 14.854L89.9136 12.826L65.4336 80.986L71.0804 83.014ZM92.737 16.84H111.361V10.84H92.737V16.84ZM108.541 14.8646L133.309 83.0246L138.949 80.9754L114.181 12.8154L108.541 14.8646ZM93.793 57.928H109.537V51.928H93.793V57.928ZM112.389 53.9968C106.205 35.0592 104.729 29.2277 104.468 24.7072L98.478 25.0528C98.7932 30.5163 100.581 37.1648 106.685 55.8592L112.389 53.9968ZM98.478 24.7072C98.2154 29.2594 96.906 35.236 90.934 54.019L96.652 55.837C102.584 37.18 104.155 30.4845 104.468 25.0528L98.478 24.7072ZM171.393 13.84V10.84H169.625L168.768 12.3861L171.393 13.84ZM189.633 13.84L192.227 15.3467L194.844 10.84H189.633V13.84ZM165.825 54.832L163.23 53.3253L162.825 54.024V54.832H165.825ZM165.825 82V85H168.825V82H165.825ZM149.505 82H146.505V85H149.505V82ZM149.505 54.832H152.505V54.024L152.099 53.3253L149.505 54.832ZM125.697 13.84V10.84H120.485L123.102 15.3467L125.697 13.84ZM144.32 13.84L146.937 12.3726L146.078 10.84H144.32V13.84ZM157.857 41.008L154.99 41.8939L157.775 50.9027L160.708 41.9411L157.857 41.008ZM171.393 16.84H189.633V10.84H171.393V16.84ZM187.038 12.3333L163.23 53.3253L168.419 56.3387L192.227 15.3467L187.038 12.3333ZM162.825 54.832V82H168.825V54.832H162.825ZM165.825 79H149.505V85H165.825V79ZM152.505 82V54.832H146.505V82H152.505ZM152.099 53.3253L128.291 12.3333L123.102 15.3467L146.91 56.3387L152.099 53.3253ZM125.697 16.84H144.32V10.84H125.697V16.84ZM141.704 15.3074C149.718 29.597 153.471 36.9801 154.99 41.8939L160.723 40.1221C158.978 34.4759 154.859 26.499 146.937 12.3726L141.704 15.3074ZM160.708 41.9411C162.329 36.9885 166.103 29.5774 174.017 15.2939L168.768 12.3861C160.938 26.5186 156.84 34.4675 155.005 40.0749L160.708 41.9411ZM247.619 79.96C228.924 79.96 215.579 66.6151 215.579 47.92H209.579C209.579 69.9289 225.61 85.96 247.619 85.96V79.96ZM215.579 47.92C215.579 29.2249 228.924 15.88 247.619 15.88V9.88C225.61 9.88 209.579 25.9111 209.579 47.92H215.579ZM247.619 15.88C266.314 15.88 279.659 29.2249 279.659 47.92H285.659C285.659 25.9111 269.628 9.88 247.619 9.88V15.88ZM279.659 47.92C279.659 66.6151 266.314 79.96 247.619 79.96V85.96C269.628 85.96 285.659 69.9289 285.659 47.92H279.659ZM247.619 70.6C260.75 70.6 269.339 60.076 269.339 47.92H263.339C263.339 57.268 256.952 64.6 247.619 64.6V70.6ZM269.339 47.92C269.339 35.764 260.75 25.24 247.619 25.24V31.24C256.952 31.24 263.339 38.572 263.339 47.92H269.339ZM247.619 25.24C234.488 25.24 225.899 35.764 225.899 47.92H231.899C231.899 38.572 238.286 31.24 247.619 31.24V25.24ZM225.899 47.92C225.899 60.076 234.488 70.6 247.619 70.6V64.6C238.286 64.6 231.899 57.268 231.899 47.92H225.899ZM336.592 13.84V10.84H333.592V13.84H336.592ZM352.528 13.84H355.528V10.84H352.528V13.84ZM352.528 82V85H355.528V82H352.528ZM337.36 82L334.926 83.7542L335.824 85H337.36V82ZM307.12 40.048L309.554 38.2938L302.901 29.0642L304.138 40.3742L307.12 40.048ZM307.888 82V85H310.888V82H307.888ZM291.952 82H288.952V85H291.952V82ZM291.952 13.84V10.84H288.952V13.84H291.952ZM307.12 13.84L309.568 12.1052L308.671 10.84H307.12V13.84ZM337.264 56.368L334.816 58.1028L341.278 67.2196L340.251 56.0922L337.264 56.368ZM336.592 16.84H352.528V10.84H336.592V16.84ZM349.528 13.84V82H355.528V13.84H349.528ZM352.528 79H337.36V85H352.528V79ZM339.794 80.2458L309.554 38.2938L304.686 41.8022L334.926 83.7542L339.794 80.2458ZM304.138 40.3742C304.787 46.3111 304.888 57.2304 304.888 82H310.888C310.888 57.4256 310.797 46.0729 310.102 39.7218L304.138 40.3742ZM307.888 79H291.952V85H307.888V79ZM294.952 82V13.84H288.952V82H294.952ZM291.952 16.84H307.12V10.84H291.952V16.84ZM304.672 15.5748L334.816 58.1028L339.712 54.6332L309.568 12.1052L304.672 15.5748ZM340.251 56.0922C339.691 50.0268 339.592 38.9748 339.592 13.84H333.592C333.592 38.8172 333.685 50.2291 334.277 56.6437L340.251 56.0922ZM409.541 13.84H412.541V10.84H409.541V13.84ZM409.541 28.624V31.624H412.541V28.624H409.541ZM380.741 28.624V25.624H377.741V28.624H380.741ZM380.741 40.624H377.741V43.624H380.741V40.624ZM404.741 40.624H407.741V37.624H404.741V40.624ZM404.741 55.024V58.024H407.741V55.024H404.741ZM380.741 55.024V52.024H377.741V55.024H380.741ZM380.741 67.216H377.741V70.216H380.741V67.216ZM409.541 67.216H412.541V64.216H409.541V67.216ZM409.541 82V85H412.541V82H409.541ZM364.421 82H361.421V85H364.421V82ZM364.421 13.84V10.84H361.421V13.84H364.421ZM406.541 13.84V28.624H412.541V13.84H406.541ZM409.541 25.624H380.741V31.624H409.541V25.624ZM377.741 28.624V40.624H383.741V28.624H377.741ZM380.741 43.624H404.741V37.624H380.741V43.624ZM401.741 40.624V55.024H407.741V40.624H401.741ZM404.741 52.024H380.741V58.024H404.741V52.024ZM377.741 55.024V67.216H383.741V55.024H377.741ZM380.741 70.216H409.541V64.216H380.741V70.216ZM406.541 67.216V82H412.541V67.216H406.541ZM409.541 79H364.421V85H409.541V79ZM367.421 82V13.84H361.421V82H367.421ZM364.421 16.84H409.541V10.84H364.421V16.84Z" fill="black" mask="url(#path-1-outside-1_60_21)"/>
</svg>
