<svg width="439" height="109" viewBox="0 0 439 109" fill="none" xmlns="http://www.w3.org/2000/svg">
<mask id="path-1-outside-1_60_20" maskUnits="userSpaceOnUse" x="3" y="9" width="436" height="77" fill="black">
<rect fill="white" x="3" y="9" width="436" height="77"/>
<path d="M30.5525 82H6.2645V13.84H30.5525C52.8245 13.84 65.8805 28.816 65.8805 47.92C65.8805 67.024 52.8245 82 30.5525 82ZM22.5845 28.624V67.216H30.5525C41.4965 67.216 49.5605 61.552 49.5605 47.92C49.5605 34.288 41.4965 28.624 30.5525 28.624H22.5845ZM136.285 82H118.621L114.109 68.368H89.7253L85.3093 82H68.4133L92.8933 13.84H111.517L136.285 82ZM93.9493 54.928H109.693C103.549 36.112 101.917 29.872 101.629 24.88C101.341 29.872 99.9013 36.208 93.9493 54.928ZM171.549 13.84H189.789L165.981 54.832V82H149.661V54.832L125.853 13.84H144.477C152.445 28.048 156.381 35.728 158.013 41.008C159.741 35.728 163.677 28.048 171.549 13.84ZM246.335 82H230.015V28.624H212.735V13.84H263.615V28.624H246.335V82ZM345.85 13.84H362.362L344.314 82H325.498C318.586 53.872 315.898 41.968 315.226 33.808C314.458 42.256 311.578 53.968 304.186 82H285.754L267.898 13.84H285.178C291.609 41.296 294.682 54.832 295.93 63.376C296.986 54.352 299.962 41.584 306.682 13.84H324.538C330.97 39.952 334.234 53.584 335.578 62.032C336.634 53.392 339.61 40.336 345.85 13.84ZM400.306 82.96C379.954 82.96 365.266 68.272 365.266 47.92C365.266 27.568 379.954 12.88 400.306 12.88C420.658 12.88 435.346 27.568 435.346 47.92C435.346 68.272 420.658 82.96 400.306 82.96ZM400.306 67.6C411.538 67.6 419.026 58.672 419.026 47.92C419.026 37.168 411.538 28.24 400.306 28.24C389.074 28.24 381.586 37.168 381.586 47.92C381.586 58.672 389.074 67.6 400.306 67.6Z"/>
</mask>
<path d="M30.5525 82H6.2645V13.84H30.5525C52.8245 13.84 65.8805 28.816 65.8805 47.92C65.8805 67.024 52.8245 82 30.5525 82ZM22.5845 28.624V67.216H30.5525C41.4965 67.216 49.5605 61.552 49.5605 47.92C49.5605 34.288 41.4965 28.624 30.5525 28.624H22.5845ZM136.285 82H118.621L114.109 68.368H89.7253L85.3093 82H68.4133L92.8933 13.84H111.517L136.285 82ZM93.9493 54.928H109.693C103.549 36.112 101.917 29.872 101.629 24.88C101.341 29.872 99.9013 36.208 93.9493 54.928ZM171.549 13.84H189.789L165.981 54.832V82H149.661V54.832L125.853 13.84H144.477C152.445 28.048 156.381 35.728 158.013 41.008C159.741 35.728 163.677 28.048 171.549 13.84ZM246.335 82H230.015V28.624H212.735V13.84H263.615V28.624H246.335V82ZM345.85 13.84H362.362L344.314 82H325.498C318.586 53.872 315.898 41.968 315.226 33.808C314.458 42.256 311.578 53.968 304.186 82H285.754L267.898 13.84H285.178C291.609 41.296 294.682 54.832 295.93 63.376C296.986 54.352 299.962 41.584 306.682 13.84H324.538C330.97 39.952 334.234 53.584 335.578 62.032C336.634 53.392 339.61 40.336 345.85 13.84ZM400.306 82.96C379.954 82.96 365.266 68.272 365.266 47.92C365.266 27.568 379.954 12.88 400.306 12.88C420.658 12.88 435.346 27.568 435.346 47.92C435.346 68.272 420.658 82.96 400.306 82.96ZM400.306 67.6C411.538 67.6 419.026 58.672 419.026 47.92C419.026 37.168 411.538 28.24 400.306 28.24C389.074 28.24 381.586 37.168 381.586 47.92C381.586 58.672 389.074 67.6 400.306 67.6Z" fill="white"/>
<path d="M6.2645 82H3.2645V85H6.2645V82ZM6.2645 13.84V10.84H3.2645V13.84H6.2645ZM22.5845 28.624V25.624H19.5845V28.624H22.5845ZM22.5845 67.216H19.5845V70.216H22.5845V67.216ZM30.5525 79H6.2645V85H30.5525V79ZM9.2645 82V13.84H3.2645V82H9.2645ZM6.2645 16.84H30.5525V10.84H6.2645V16.84ZM30.5525 16.84C40.9907 16.84 49.0181 20.3329 54.4326 25.8226C59.8609 31.3264 62.8805 39.0572 62.8805 47.92H68.8805C68.8805 37.6788 65.3721 28.3696 58.7044 21.6094C52.0229 14.8351 42.3863 10.84 30.5525 10.84V16.84ZM62.8805 47.92C62.8805 56.7828 59.8609 64.5136 54.4326 70.0174C49.0181 75.5071 40.9907 79 30.5525 79V85C42.3863 85 52.0229 81.0049 58.7044 74.2306C65.3721 67.4704 68.8805 58.1612 68.8805 47.92H62.8805ZM19.5845 28.624V67.216H25.5845V28.624H19.5845ZM22.5845 70.216H30.5525V64.216H22.5845V70.216ZM30.5525 70.216C36.5061 70.216 42.0841 68.6749 46.194 64.8856C50.3482 61.0555 52.5605 55.3384 52.5605 47.92H46.5605C46.5605 54.1336 44.7408 58.0645 42.127 60.4744C39.4689 62.9251 35.5429 64.216 30.5525 64.216V70.216ZM52.5605 47.92C52.5605 40.5016 50.3482 34.7845 46.194 30.9544C42.0841 27.1651 36.5061 25.624 30.5525 25.624V31.624C35.5429 31.624 39.4689 32.9149 42.127 35.3656C44.7408 37.7755 46.5605 41.7064 46.5605 47.92H52.5605ZM30.5525 25.624H22.5845V31.624H30.5525V25.624ZM136.285 82V85H140.567L139.105 80.9754L136.285 82ZM118.621 82L115.773 82.9427L116.454 85H118.621V82ZM114.109 68.368L116.957 67.4253L116.276 65.368H114.109V68.368ZM89.7253 68.368V65.368H87.5436L86.8713 67.4435L89.7253 68.368ZM85.3092 82V85H87.4909L88.1632 82.9245L85.3092 82ZM68.4133 82L65.5898 80.986L64.1482 85H68.4133V82ZM92.8932 13.84V10.84H90.7831L90.0698 12.826L92.8932 13.84ZM111.517 13.84L114.337 12.8154L113.619 10.84H111.517V13.84ZM93.9492 54.928L91.0903 54.019L89.8474 57.928H93.9492V54.928ZM109.693 54.928V57.928H113.829L112.545 53.9968L109.693 54.928ZM101.629 24.88L104.624 24.7072L98.6342 24.7072L101.629 24.88ZM136.285 79H118.621V85H136.285V79ZM121.469 81.0573L116.957 67.4253L111.261 69.3107L115.773 82.9427L121.469 81.0573ZM114.109 65.368H89.7253V71.368H114.109V65.368ZM86.8713 67.4435L82.4553 81.0755L88.1632 82.9245L92.5792 69.2925L86.8713 67.4435ZM85.3092 79H68.4133V85H85.3092V79ZM71.2367 83.014L95.7167 14.854L90.0698 12.826L65.5898 80.986L71.2367 83.014ZM92.8932 16.84H111.517V10.84H92.8932V16.84ZM108.698 14.8646L133.466 83.0246L139.105 80.9754L114.337 12.8154L108.698 14.8646ZM93.9492 57.928H109.693V51.928H93.9492V57.928ZM112.545 53.9968C106.361 35.0592 104.885 29.2277 104.624 24.7072L98.6342 25.0528C98.9494 30.5163 100.737 37.1648 106.841 55.8592L112.545 53.9968ZM98.6342 24.7072C98.3716 29.2594 97.0623 35.236 91.0903 54.019L96.8082 55.837C102.74 37.18 104.311 30.4845 104.624 25.0528L98.6342 24.7072ZM171.549 13.84V10.84H169.781L168.925 12.3861L171.549 13.84ZM189.789 13.84L192.383 15.3467L195 10.84H189.789V13.84ZM165.981 54.832L163.387 53.3253L162.981 54.024V54.832H165.981ZM165.981 82V85H168.981V82H165.981ZM149.661 82H146.661V85H149.661V82ZM149.661 54.832H152.661V54.024L152.255 53.3253L149.661 54.832ZM125.853 13.84V10.84H120.641L123.259 15.3467L125.853 13.84ZM144.477 13.84L147.093 12.3726L146.234 10.84H144.477V13.84ZM158.013 41.008L155.147 41.8939L157.931 50.9027L160.864 41.9411L158.013 41.008ZM171.549 16.84H189.789V10.84H171.549V16.84ZM187.195 12.3333L163.387 53.3253L168.575 56.3387L192.383 15.3467L187.195 12.3333ZM162.981 54.832V82H168.981V54.832H162.981ZM165.981 79H149.661V85H165.981V79ZM152.661 82V54.832H146.661V82H152.661ZM152.255 53.3253L128.447 12.3333L123.259 15.3467L147.067 56.3387L152.255 53.3253ZM125.853 16.84H144.477V10.84H125.853V16.84ZM141.86 15.3074C149.874 29.597 153.628 36.9801 155.147 41.8939L160.879 40.1221C159.134 34.4759 155.016 26.499 147.093 12.3726L141.86 15.3074ZM160.864 41.9411C162.485 36.9885 166.259 29.5774 174.173 15.2939L168.925 12.3861C161.094 26.5186 156.997 34.4675 155.162 40.0749L160.864 41.9411ZM246.335 82V85H249.335V82H246.335ZM230.015 82H227.015V85H230.015V82ZM230.015 28.624H233.015V25.624H230.015V28.624ZM212.735 28.624H209.735V31.624H212.735V28.624ZM212.735 13.84V10.84H209.735V13.84H212.735ZM263.615 13.84H266.615V10.84H263.615V13.84ZM263.615 28.624V31.624H266.615V28.624H263.615ZM246.335 28.624V25.624H243.335V28.624H246.335ZM246.335 79H230.015V85H246.335V79ZM233.015 82V28.624H227.015V82H233.015ZM230.015 25.624H212.735V31.624H230.015V25.624ZM215.735 28.624V13.84H209.735V28.624H215.735ZM212.735 16.84H263.615V10.84H212.735V16.84ZM260.615 13.84V28.624H266.615V13.84H260.615ZM263.615 25.624H246.335V31.624H263.615V25.624ZM243.335 28.624V82H249.335V28.624H243.335ZM345.849 13.84V10.84H343.474L342.929 13.1523L345.849 13.84ZM362.362 13.84L365.262 14.6079L366.259 10.84H362.362V13.84ZM344.314 82V85H346.623L347.214 82.7679L344.314 82ZM325.497 82L322.584 82.7159L323.145 85H325.497V82ZM315.225 33.808L318.215 33.5618L312.238 33.5364L315.225 33.808ZM304.185 82V85H306.497L307.086 82.7649L304.185 82ZM285.754 82L282.851 82.7603L283.438 85H285.754V82ZM267.897 13.84V10.84H264.01L264.995 14.6003L267.897 13.84ZM285.177 13.84L288.098 13.1557L287.556 10.84H285.177V13.84ZM295.93 63.376L292.961 63.8096L298.909 63.7247L295.93 63.376ZM306.682 13.84V10.84H304.321L303.766 13.1338L306.682 13.84ZM324.538 13.84L327.45 13.1225L326.888 10.84H324.538V13.84ZM335.578 62.032L332.615 62.5033L338.555 62.396L335.578 62.032ZM345.849 16.84H362.362V10.84H345.849V16.84ZM359.461 13.0721L341.413 81.2321L347.214 82.7679L365.262 14.6079L359.461 13.0721ZM344.314 79H325.497V85H344.314V79ZM328.411 81.2841C321.473 53.0491 318.863 41.4252 318.215 33.5618L312.236 34.0542C312.932 42.5108 315.698 54.6949 322.584 82.7159L328.411 81.2841ZM312.238 33.5364C311.498 41.6715 308.707 53.0873 301.285 81.2351L307.086 82.7649C314.448 54.8487 317.417 42.8405 318.213 34.0796L312.238 33.5364ZM304.185 79H285.754V85H304.185V79ZM288.656 81.2397L270.8 13.0797L264.995 14.6003L282.851 82.7603L288.656 81.2397ZM267.897 16.84H285.177V10.84H267.897V16.84ZM282.257 14.5243C288.703 42.0437 291.736 55.4245 292.961 63.8096L298.898 62.9424C297.627 54.2395 294.516 40.5483 288.098 13.1557L282.257 14.5243ZM298.909 63.7247C299.939 54.9275 302.856 42.3783 309.597 14.5462L303.766 13.1338C297.067 40.7897 294.032 53.7765 292.95 63.0273L298.909 63.7247ZM306.682 16.84H324.538V10.84H306.682V16.84ZM321.625 14.5575C328.072 40.7316 331.296 54.2114 332.615 62.5033L338.54 61.5607C337.171 52.9566 333.867 39.1724 327.45 13.1225L321.625 14.5575ZM338.555 62.396C339.586 53.9618 342.51 41.1069 348.77 14.5277L342.929 13.1523C336.709 39.565 333.681 52.8222 332.6 61.668L338.555 62.396ZM400.306 79.96C381.611 79.96 368.266 66.6151 368.266 47.92H362.266C362.266 69.9289 378.297 85.96 400.306 85.96V79.96ZM368.266 47.92C368.266 29.2249 381.611 15.88 400.306 15.88V9.88C378.297 9.88 362.266 25.9111 362.266 47.92H368.266ZM400.306 15.88C419.001 15.88 432.346 29.2249 432.346 47.92H438.346C438.346 25.9111 422.315 9.88 400.306 9.88V15.88ZM432.346 47.92C432.346 66.6151 419.001 79.96 400.306 79.96V85.96C422.315 85.96 438.346 69.9289 438.346 47.92H432.346ZM400.306 70.6C413.437 70.6 422.026 60.076 422.026 47.92H416.026C416.026 57.268 409.639 64.6 400.306 64.6V70.6ZM422.026 47.92C422.026 35.764 413.437 25.24 400.306 25.24V31.24C409.639 31.24 416.026 38.572 416.026 47.92H422.026ZM400.306 25.24C387.175 25.24 378.586 35.764 378.586 47.92H384.586C384.586 38.572 390.973 31.24 400.306 31.24V25.24ZM378.586 47.92C378.586 60.076 387.175 70.6 400.306 70.6V64.6C390.973 64.6 384.586 57.268 384.586 47.92H378.586Z" fill="black" mask="url(#path-1-outside-1_60_20)"/>
</svg>
