<svg width="512" height="109" viewBox="0 0 512 109" fill="none" xmlns="http://www.w3.org/2000/svg">
<mask id="path-1-outside-1_60_19" maskUnits="userSpaceOnUse" x="3" y="10" width="509" height="75" fill="black">
<rect fill="white" x="3" y="10" width="509" height="75"/>
<path d="M30.6775 82H6.3895V13.84H30.6775C52.9495 13.84 66.0055 28.816 66.0055 47.92C66.0055 67.024 52.9495 82 30.6775 82ZM22.7095 28.624V67.216H30.6775C41.6215 67.216 49.6855 61.552 49.6855 47.92C49.6855 34.288 41.6215 28.624 30.6775 28.624H22.7095ZM136.41 82H118.746L114.234 68.368H89.8503L85.4343 82H68.5383L93.0183 13.84H111.642L136.41 82ZM94.0743 54.928H109.818C103.674 36.112 102.042 29.872 101.754 24.88C101.466 29.872 100.026 36.208 94.0743 54.928ZM171.674 13.84H189.914L166.106 54.832V82H149.786V54.832L125.978 13.84H144.602C152.57 28.048 156.506 35.728 158.138 41.008C159.866 35.728 163.802 28.048 171.674 13.84ZM246.46 82H230.14V28.624H212.86V13.84H263.74V28.624H246.46V82ZM315.927 41.296V13.84H332.247V82H315.927V55.696H289.335V82H273.015V13.84H289.335V41.296H315.927ZM400.043 82H380.171L359.723 54.544C360.395 58.48 360.491 66.928 360.491 82H344.171V13.84H373.835C389.003 13.84 398.603 21.52 398.603 35.44C398.603 50.128 387.947 55.888 379.787 57.04C383.435 60.976 389.003 68.08 400.043 82ZM382.283 36.976C382.283 31.696 378.827 28.624 372.875 28.624H360.491V45.616H372.875C378.827 45.616 382.283 42.352 382.283 36.976ZM453.885 13.84V28.624H425.085V40.624H449.085V55.024H425.085V67.216H453.885V82H408.765V13.84H453.885ZM508.26 13.84V28.624H479.46V40.624H503.46V55.024H479.46V67.216H508.26V82H463.14V13.84H508.26Z"/>
</mask>
<path d="M30.6775 82H6.3895V13.84H30.6775C52.9495 13.84 66.0055 28.816 66.0055 47.92C66.0055 67.024 52.9495 82 30.6775 82ZM22.7095 28.624V67.216H30.6775C41.6215 67.216 49.6855 61.552 49.6855 47.92C49.6855 34.288 41.6215 28.624 30.6775 28.624H22.7095ZM136.41 82H118.746L114.234 68.368H89.8503L85.4343 82H68.5383L93.0183 13.84H111.642L136.41 82ZM94.0743 54.928H109.818C103.674 36.112 102.042 29.872 101.754 24.88C101.466 29.872 100.026 36.208 94.0743 54.928ZM171.674 13.84H189.914L166.106 54.832V82H149.786V54.832L125.978 13.84H144.602C152.57 28.048 156.506 35.728 158.138 41.008C159.866 35.728 163.802 28.048 171.674 13.84ZM246.46 82H230.14V28.624H212.86V13.84H263.74V28.624H246.46V82ZM315.927 41.296V13.84H332.247V82H315.927V55.696H289.335V82H273.015V13.84H289.335V41.296H315.927ZM400.043 82H380.171L359.723 54.544C360.395 58.48 360.491 66.928 360.491 82H344.171V13.84H373.835C389.003 13.84 398.603 21.52 398.603 35.44C398.603 50.128 387.947 55.888 379.787 57.04C383.435 60.976 389.003 68.08 400.043 82ZM382.283 36.976C382.283 31.696 378.827 28.624 372.875 28.624H360.491V45.616H372.875C378.827 45.616 382.283 42.352 382.283 36.976ZM453.885 13.84V28.624H425.085V40.624H449.085V55.024H425.085V67.216H453.885V82H408.765V13.84H453.885ZM508.26 13.84V28.624H479.46V40.624H503.46V55.024H479.46V67.216H508.26V82H463.14V13.84H508.26Z" fill="white"/>
<path d="M6.3895 82H3.3895V85H6.3895V82ZM6.3895 13.84V10.84H3.3895V13.84H6.3895ZM22.7095 28.624V25.624H19.7095V28.624H22.7095ZM22.7095 67.216H19.7095V70.216H22.7095V67.216ZM30.6775 79H6.3895V85H30.6775V79ZM9.3895 82V13.84H3.3895V82H9.3895ZM6.3895 16.84H30.6775V10.84H6.3895V16.84ZM30.6775 16.84C41.1157 16.84 49.1431 20.3329 54.5576 25.8226C59.9859 31.3264 63.0055 39.0572 63.0055 47.92H69.0055C69.0055 37.6788 65.4971 28.3696 58.8294 21.6094C52.1479 14.8351 42.5113 10.84 30.6775 10.84V16.84ZM63.0055 47.92C63.0055 56.7828 59.9859 64.5136 54.5576 70.0174C49.1431 75.5071 41.1157 79 30.6775 79V85C42.5113 85 52.1479 81.0049 58.8294 74.2306C65.4971 67.4704 69.0055 58.1612 69.0055 47.92H63.0055ZM19.7095 28.624V67.216H25.7095V28.624H19.7095ZM22.7095 70.216H30.6775V64.216H22.7095V70.216ZM30.6775 70.216C36.6311 70.216 42.2091 68.6749 46.319 64.8856C50.4732 61.0555 52.6855 55.3384 52.6855 47.92H46.6855C46.6855 54.1336 44.8658 58.0645 42.252 60.4744C39.5939 62.9251 35.6679 64.216 30.6775 64.216V70.216ZM52.6855 47.92C52.6855 40.5016 50.4732 34.7845 46.319 30.9544C42.2091 27.1651 36.6311 25.624 30.6775 25.624V31.624C35.6679 31.624 39.5939 32.9149 42.252 35.3656C44.8658 37.7755 46.6855 41.7064 46.6855 47.92H52.6855ZM30.6775 25.624H22.7095V31.624H30.6775V25.624ZM136.41 82V85H140.692L139.23 80.9754L136.41 82ZM118.746 82L115.898 82.9427L116.579 85H118.746V82ZM114.234 68.368L117.082 67.4253L116.401 65.368H114.234V68.368ZM89.8503 68.368V65.368H87.6686L86.9963 67.4435L89.8503 68.368ZM85.4342 82V85H87.6159L88.2882 82.9245L85.4342 82ZM68.5383 82L65.7148 80.986L64.2732 85H68.5383V82ZM93.0182 13.84V10.84H90.9081L90.1948 12.826L93.0182 13.84ZM111.642 13.84L114.462 12.8154L113.744 10.84H111.642V13.84ZM94.0742 54.928L91.2153 54.019L89.9724 57.928H94.0742V54.928ZM109.818 54.928V57.928H113.954L112.67 53.9968L109.818 54.928ZM101.754 24.88L104.749 24.7072L98.7592 24.7072L101.754 24.88ZM136.41 79H118.746V85H136.41V79ZM121.594 81.0573L117.082 67.4253L111.386 69.3107L115.898 82.9427L121.594 81.0573ZM114.234 65.368H89.8503V71.368H114.234V65.368ZM86.9963 67.4435L82.5803 81.0755L88.2882 82.9245L92.7042 69.2925L86.9963 67.4435ZM85.4342 79H68.5383V85H85.4342V79ZM71.3617 83.014L95.8417 14.854L90.1948 12.826L65.7148 80.986L71.3617 83.014ZM93.0182 16.84H111.642V10.84H93.0182V16.84ZM108.823 14.8646L133.591 83.0246L139.23 80.9754L114.462 12.8154L108.823 14.8646ZM94.0742 57.928H109.818V51.928H94.0742V57.928ZM112.67 53.9968C106.486 35.0592 105.01 29.2277 104.749 24.7072L98.7592 25.0528C99.0744 30.5163 100.862 37.1648 106.966 55.8592L112.67 53.9968ZM98.7592 24.7072C98.4966 29.2594 97.1873 35.236 91.2153 54.019L96.9332 55.837C102.865 37.18 104.436 30.4845 104.749 25.0528L98.7592 24.7072ZM171.674 13.84V10.84H169.906L169.05 12.3861L171.674 13.84ZM189.914 13.84L192.508 15.3467L195.125 10.84H189.914V13.84ZM166.106 54.832L163.512 53.3253L163.106 54.024V54.832H166.106ZM166.106 82V85H169.106V82H166.106ZM149.786 82H146.786V85H149.786V82ZM149.786 54.832H152.786V54.024L152.38 53.3253L149.786 54.832ZM125.978 13.84V10.84H120.766L123.384 15.3467L125.978 13.84ZM144.602 13.84L147.218 12.3726L146.359 10.84H144.602V13.84ZM158.138 41.008L155.272 41.8939L158.056 50.9027L160.989 41.9411L158.138 41.008ZM171.674 16.84H189.914V10.84H171.674V16.84ZM187.32 12.3333L163.512 53.3253L168.7 56.3387L192.508 15.3467L187.32 12.3333ZM163.106 54.832V82H169.106V54.832H163.106ZM166.106 79H149.786V85H166.106V79ZM152.786 82V54.832H146.786V82H152.786ZM152.38 53.3253L128.572 12.3333L123.384 15.3467L147.192 56.3387L152.38 53.3253ZM125.978 16.84H144.602V10.84H125.978V16.84ZM141.985 15.3074C149.999 29.597 153.753 36.9801 155.272 41.8939L161.004 40.1221C159.259 34.4759 155.141 26.499 147.218 12.3726L141.985 15.3074ZM160.989 41.9411C162.61 36.9885 166.384 29.5774 174.298 15.2939L169.05 12.3861C161.219 26.5186 157.122 34.4675 155.287 40.0749L160.989 41.9411ZM246.46 82V85H249.46V82H246.46ZM230.14 82H227.14V85H230.14V82ZM230.14 28.624H233.14V25.624H230.14V28.624ZM212.86 28.624H209.86V31.624H212.86V28.624ZM212.86 13.84V10.84H209.86V13.84H212.86ZM263.74 13.84H266.74V10.84H263.74V13.84ZM263.74 28.624V31.624H266.74V28.624H263.74ZM246.46 28.624V25.624H243.46V28.624H246.46ZM246.46 79H230.14V85H246.46V79ZM233.14 82V28.624H227.14V82H233.14ZM230.14 25.624H212.86V31.624H230.14V25.624ZM215.86 28.624V13.84H209.86V28.624H215.86ZM212.86 16.84H263.74V10.84H212.86V16.84ZM260.74 13.84V28.624H266.74V13.84H260.74ZM263.74 25.624H246.46V31.624H263.74V25.624ZM243.46 28.624V82H249.46V28.624H243.46ZM315.927 41.296V44.296H318.927V41.296H315.927ZM315.927 13.84V10.84H312.927V13.84H315.927ZM332.246 13.84H335.246V10.84H332.246V13.84ZM332.246 82V85H335.246V82H332.246ZM315.927 82H312.927V85H315.927V82ZM315.927 55.696H318.927V52.696H315.927V55.696ZM289.335 55.696V52.696H286.335V55.696H289.335ZM289.335 82V85H292.335V82H289.335ZM273.014 82H270.014V85H273.014V82ZM273.014 13.84V10.84H270.014V13.84H273.014ZM289.335 13.84H292.335V10.84H289.335V13.84ZM289.335 41.296H286.335V44.296H289.335V41.296ZM318.927 41.296V13.84H312.927V41.296H318.927ZM315.927 16.84H332.246V10.84H315.927V16.84ZM329.246 13.84V82H335.246V13.84H329.246ZM332.246 79H315.927V85H332.246V79ZM318.927 82V55.696H312.927V82H318.927ZM315.927 52.696H289.335V58.696H315.927V52.696ZM286.335 55.696V82H292.335V55.696H286.335ZM289.335 79H273.014V85H289.335V79ZM276.014 82V13.84H270.014V82H276.014ZM273.014 16.84H289.335V10.84H273.014V16.84ZM286.335 13.84V41.296H292.335V13.84H286.335ZM289.335 44.296H315.927V38.296H289.335V44.296ZM400.043 82V85H406.251L402.393 80.1358L400.043 82ZM380.171 82L377.765 83.7919L378.664 85H380.171V82ZM359.723 54.544L362.129 52.7521L356.766 55.0489L359.723 54.544ZM360.491 82V85H363.491V82H360.491ZM344.171 82H341.171V85H344.171V82ZM344.171 13.84V10.84H341.171V13.84H344.171ZM379.787 57.04L379.367 54.0695L373.687 54.8715L377.586 59.0793L379.787 57.04ZM360.491 28.624V25.624H357.491V28.624H360.491ZM360.491 45.616H357.491V48.616H360.491V45.616ZM400.043 79H380.171V85H400.043V79ZM382.577 80.2081L362.129 52.7521L357.317 56.3359L377.765 83.7919L382.577 80.2081ZM356.766 55.0489C357.383 58.6643 357.491 66.7679 357.491 82H363.491C363.491 67.0881 363.407 58.2957 362.68 54.0391L356.766 55.0489ZM360.491 79H344.171V85H360.491V79ZM347.171 82V13.84H341.171V82H347.171ZM344.171 16.84H373.835V10.84H344.171V16.84ZM373.835 16.84C380.948 16.84 386.368 18.642 389.961 21.7036C393.488 24.708 395.603 29.2177 395.603 35.44H401.603C401.603 27.7423 398.918 21.452 393.852 17.1364C388.854 12.878 381.89 10.84 373.835 10.84V16.84ZM395.603 35.44C395.603 41.9747 393.268 46.2818 390.214 49.1174C387.08 52.0267 382.993 53.5576 379.367 54.0695L380.206 60.0105C384.74 59.3704 390.062 57.4453 394.296 53.5146C398.609 49.5102 401.603 43.5933 401.603 35.44H395.603ZM377.586 59.0793C381.132 62.9046 386.592 69.8683 397.692 83.8642L402.393 80.1358C391.413 66.2917 385.738 59.0474 381.987 55.0007L377.586 59.0793ZM385.283 36.976C385.283 33.6513 384.171 30.6796 381.803 28.5768C379.485 26.5184 376.337 25.624 372.875 25.624V31.624C375.365 31.624 376.921 32.2656 377.819 33.0631C378.667 33.8164 379.283 35.0207 379.283 36.976H385.283ZM372.875 25.624H360.491V31.624H372.875V25.624ZM357.491 28.624V45.616H363.491V28.624H357.491ZM360.491 48.616H372.875V42.616H360.491V48.616ZM372.875 48.616C376.381 48.616 379.54 47.6496 381.848 45.5139C384.186 43.3506 385.283 40.3274 385.283 36.976H379.283C379.283 39.0006 378.651 40.2974 377.773 41.1101C376.865 41.9504 375.32 42.616 372.875 42.616V48.616ZM453.884 13.84H456.884V10.84H453.884V13.84ZM453.884 28.624V31.624H456.884V28.624H453.884ZM425.085 28.624V25.624H422.085V28.624H425.085ZM425.085 40.624H422.085V43.624H425.085V40.624ZM449.085 40.624H452.085V37.624H449.085V40.624ZM449.085 55.024V58.024H452.085V55.024H449.085ZM425.085 55.024V52.024H422.085V55.024H425.085ZM425.085 67.216H422.085V70.216H425.085V67.216ZM453.884 67.216H456.884V64.216H453.884V67.216ZM453.884 82V85H456.884V82H453.884ZM408.764 82H405.764V85H408.764V82ZM408.764 13.84V10.84H405.764V13.84H408.764ZM450.884 13.84V28.624H456.884V13.84H450.884ZM453.884 25.624H425.085V31.624H453.884V25.624ZM422.085 28.624V40.624H428.085V28.624H422.085ZM425.085 43.624H449.085V37.624H425.085V43.624ZM446.085 40.624V55.024H452.085V40.624H446.085ZM449.085 52.024H425.085V58.024H449.085V52.024ZM422.085 55.024V67.216H428.085V55.024H422.085ZM425.085 70.216H453.884V64.216H425.085V70.216ZM450.884 67.216V82H456.884V67.216H450.884ZM453.884 79H408.764V85H453.884V79ZM411.764 82V13.84H405.764V82H411.764ZM408.764 16.84H453.884V10.84H408.764V16.84ZM508.259 13.84H511.259V10.84H508.259V13.84ZM508.259 28.624V31.624H511.259V28.624H508.259ZM479.46 28.624V25.624H476.46V28.624H479.46ZM479.46 40.624H476.46V43.624H479.46V40.624ZM503.46 40.624H506.46V37.624H503.46V40.624ZM503.46 55.024V58.024H506.46V55.024H503.46ZM479.46 55.024V52.024H476.46V55.024H479.46ZM479.46 67.216H476.46V70.216H479.46V67.216ZM508.259 67.216H511.259V64.216H508.259V67.216ZM508.259 82V85H511.259V82H508.259ZM463.139 82H460.139V85H463.139V82ZM463.139 13.84V10.84H460.139V13.84H463.139ZM505.259 13.84V28.624H511.259V13.84H505.259ZM508.259 25.624H479.46V31.624H508.259V25.624ZM476.46 28.624V40.624H482.46V28.624H476.46ZM479.46 43.624H503.46V37.624H479.46V43.624ZM500.46 40.624V55.024H506.46V40.624H500.46ZM503.46 52.024H479.46V58.024H503.46V52.024ZM476.46 55.024V67.216H482.46V55.024H476.46ZM479.46 70.216H508.259V64.216H479.46V70.216ZM505.259 67.216V82H511.259V67.216H505.259ZM508.259 79H463.139V85H508.259V79ZM466.139 82V13.84H460.139V82H466.139ZM463.139 16.84H508.259V10.84H463.139V16.84Z" fill="black" mask="url(#path-1-outside-1_60_19)"/>
</svg>
