<svg width="512" height="272" viewBox="0 0 512 272" fill="none" xmlns="http://www.w3.org/2000/svg">
<path d="M217.419 43.2889L208.563 82.752L163.27 77.3046L178.848 112.113L132.753 126.948L168.591 147.775L134.043 178.918L180.538 180.182L166.796 219.288L211.49 200.652L222.235 237.242L253.152 203.699L285.505 227.969L294.361 188.506L339.654 193.953L324.076 159.145L370.171 144.31L334.333 123.483L368.881 92.34L322.386 91.0754L336.128 51.9696L291.434 70.6059L280.689 34.0157L249.772 67.5593L217.419 43.2889Z" fill="#ED1C24"/>
<mask id="path-2-outside-1_60_19" maskUnits="userSpaceOnUse" x="3" y="106" width="509" height="75" fill="black">
<rect fill="white" x="3" y="106" width="509" height="75"/>
<path d="M30.6775 178H6.3895V109.84H30.6775C52.9495 109.84 66.0055 124.816 66.0055 143.92C66.0055 163.024 52.9495 178 30.6775 178ZM22.7095 124.624V163.216H30.6775C41.6215 163.216 49.6855 157.552 49.6855 143.92C49.6855 130.288 41.6215 124.624 30.6775 124.624H22.7095ZM136.41 178H118.746L114.234 164.368H89.8503L85.4343 178H68.5383L93.0183 109.84H111.642L136.41 178ZM94.0743 150.928H109.818C103.674 132.112 102.042 125.872 101.754 120.88C101.466 125.872 100.026 132.208 94.0743 150.928ZM171.674 109.84H189.914L166.106 150.832V178H149.786V150.832L125.978 109.84H144.602C152.57 124.048 156.506 131.728 158.138 137.008C159.866 131.728 163.802 124.048 171.674 109.84ZM246.46 178H230.14V124.624H212.86V109.84H263.74V124.624H246.46V178ZM315.927 137.296V109.84H332.247V178H315.927V151.696H289.335V178H273.015V109.84H289.335V137.296H315.927ZM400.043 178H380.171L359.723 150.544C360.395 154.48 360.491 162.928 360.491 178H344.171V109.84H373.835C389.003 109.84 398.603 117.52 398.603 131.44C398.603 146.128 387.947 151.888 379.787 153.04C383.435 156.976 389.003 164.08 400.043 178ZM382.283 132.976C382.283 127.696 378.827 124.624 372.875 124.624H360.491V141.616H372.875C378.827 141.616 382.283 138.352 382.283 132.976ZM453.885 109.84V124.624H425.085V136.624H449.085V151.024H425.085V163.216H453.885V178H408.765V109.84H453.885ZM508.26 109.84V124.624H479.46V136.624H503.46V151.024H479.46V163.216H508.26V178H463.14V109.84H508.26Z"/>
</mask>
<path d="M30.6775 178H6.3895V109.84H30.6775C52.9495 109.84 66.0055 124.816 66.0055 143.92C66.0055 163.024 52.9495 178 30.6775 178ZM22.7095 124.624V163.216H30.6775C41.6215 163.216 49.6855 157.552 49.6855 143.92C49.6855 130.288 41.6215 124.624 30.6775 124.624H22.7095ZM136.41 178H118.746L114.234 164.368H89.8503L85.4343 178H68.5383L93.0183 109.84H111.642L136.41 178ZM94.0743 150.928H109.818C103.674 132.112 102.042 125.872 101.754 120.88C101.466 125.872 100.026 132.208 94.0743 150.928ZM171.674 109.84H189.914L166.106 150.832V178H149.786V150.832L125.978 109.84H144.602C152.57 124.048 156.506 131.728 158.138 137.008C159.866 131.728 163.802 124.048 171.674 109.84ZM246.46 178H230.14V124.624H212.86V109.84H263.74V124.624H246.46V178ZM315.927 137.296V109.84H332.247V178H315.927V151.696H289.335V178H273.015V109.84H289.335V137.296H315.927ZM400.043 178H380.171L359.723 150.544C360.395 154.48 360.491 162.928 360.491 178H344.171V109.84H373.835C389.003 109.84 398.603 117.52 398.603 131.44C398.603 146.128 387.947 151.888 379.787 153.04C383.435 156.976 389.003 164.08 400.043 178ZM382.283 132.976C382.283 127.696 378.827 124.624 372.875 124.624H360.491V141.616H372.875C378.827 141.616 382.283 138.352 382.283 132.976ZM453.885 109.84V124.624H425.085V136.624H449.085V151.024H425.085V163.216H453.885V178H408.765V109.84H453.885ZM508.26 109.84V124.624H479.46V136.624H503.46V151.024H479.46V163.216H508.26V178H463.14V109.84H508.26Z" fill="white"/>
<path d="M6.3895 178H3.3895V181H6.3895V178ZM6.3895 109.84V106.84H3.3895V109.84H6.3895ZM22.7095 124.624V121.624H19.7095V124.624H22.7095ZM22.7095 163.216H19.7095V166.216H22.7095V163.216ZM30.6775 175H6.3895V181H30.6775V175ZM9.3895 178V109.84H3.3895V178H9.3895ZM6.3895 112.84H30.6775V106.84H6.3895V112.84ZM30.6775 112.84C41.1157 112.84 49.1431 116.333 54.5576 121.823C59.9859 127.326 63.0055 135.057 63.0055 143.92H69.0055C69.0055 133.679 65.4971 124.37 58.8294 117.609C52.1479 110.835 42.5113 106.84 30.6775 106.84V112.84ZM63.0055 143.92C63.0055 152.783 59.9859 160.514 54.5576 166.017C49.1431 171.507 41.1157 175 30.6775 175V181C42.5113 181 52.1479 177.005 58.8294 170.231C65.4971 163.47 69.0055 154.161 69.0055 143.92H63.0055ZM19.7095 124.624V163.216H25.7095V124.624H19.7095ZM22.7095 166.216H30.6775V160.216H22.7095V166.216ZM30.6775 166.216C36.6311 166.216 42.2091 164.675 46.319 160.886C50.4732 157.056 52.6855 151.338 52.6855 143.92H46.6855C46.6855 150.134 44.8658 154.064 42.252 156.474C39.5939 158.925 35.6679 160.216 30.6775 160.216V166.216ZM52.6855 143.92C52.6855 136.502 50.4732 130.784 46.319 126.954C42.2091 123.165 36.6311 121.624 30.6775 121.624V127.624C35.6679 127.624 39.5939 128.915 42.252 131.366C44.8658 133.776 46.6855 137.706 46.6855 143.92H52.6855ZM30.6775 121.624H22.7095V127.624H30.6775V121.624ZM136.41 178V181H140.692L139.23 176.975L136.41 178ZM118.746 178L115.898 178.943L116.579 181H118.746V178ZM114.234 164.368L117.082 163.425L116.401 161.368H114.234V164.368ZM89.8503 164.368V161.368H87.6686L86.9963 163.443L89.8503 164.368ZM85.4342 178V181H87.6159L88.2882 178.925L85.4342 178ZM68.5383 178L65.7148 176.986L64.2732 181H68.5383V178ZM93.0182 109.84V106.84H90.9081L90.1948 108.826L93.0182 109.84ZM111.642 109.84L114.462 108.815L113.744 106.84H111.642V109.84ZM94.0742 150.928L91.2153 150.019L89.9724 153.928H94.0742V150.928ZM109.818 150.928V153.928H113.954L112.67 149.997L109.818 150.928ZM101.754 120.88L104.749 120.707L98.7592 120.707L101.754 120.88ZM136.41 175H118.746V181H136.41V175ZM121.594 177.057L117.082 163.425L111.386 165.311L115.898 178.943L121.594 177.057ZM114.234 161.368H89.8503V167.368H114.234V161.368ZM86.9963 163.443L82.5803 177.075L88.2882 178.925L92.7042 165.293L86.9963 163.443ZM85.4342 175H68.5383V181H85.4342V175ZM71.3617 179.014L95.8417 110.854L90.1948 108.826L65.7148 176.986L71.3617 179.014ZM93.0182 112.84H111.642V106.84H93.0182V112.84ZM108.823 110.865L133.591 179.025L139.23 176.975L114.462 108.815L108.823 110.865ZM94.0742 153.928H109.818V147.928H94.0742V153.928ZM112.67 149.997C106.486 131.059 105.01 125.228 104.749 120.707L98.7592 121.053C99.0744 126.516 100.862 133.165 106.966 151.859L112.67 149.997ZM98.7592 120.707C98.4966 125.259 97.1873 131.236 91.2153 150.019L96.9332 151.837C102.865 133.18 104.436 126.485 104.749 121.053L98.7592 120.707ZM171.674 109.84V106.84H169.906L169.05 108.386L171.674 109.84ZM189.914 109.84L192.508 111.347L195.125 106.84H189.914V109.84ZM166.106 150.832L163.512 149.325L163.106 150.024V150.832H166.106ZM166.106 178V181H169.106V178H166.106ZM149.786 178H146.786V181H149.786V178ZM149.786 150.832H152.786V150.024L152.38 149.325L149.786 150.832ZM125.978 109.84V106.84H120.766L123.384 111.347L125.978 109.84ZM144.602 109.84L147.218 108.373L146.359 106.84H144.602V109.84ZM158.138 137.008L155.272 137.894L158.056 146.903L160.989 137.941L158.138 137.008ZM171.674 112.84H189.914V106.84H171.674V112.84ZM187.32 108.333L163.512 149.325L168.7 152.339L192.508 111.347L187.32 108.333ZM163.106 150.832V178H169.106V150.832H163.106ZM166.106 175H149.786V181H166.106V175ZM152.786 178V150.832H146.786V178H152.786ZM152.38 149.325L128.572 108.333L123.384 111.347L147.192 152.339L152.38 149.325ZM125.978 112.84H144.602V106.84H125.978V112.84ZM141.985 111.307C149.999 125.597 153.753 132.98 155.272 137.894L161.004 136.122C159.259 130.476 155.141 122.499 147.218 108.373L141.985 111.307ZM160.989 137.941C162.61 132.988 166.384 125.577 174.298 111.294L169.05 108.386C161.219 122.519 157.122 130.468 155.287 136.075L160.989 137.941ZM246.46 178V181H249.46V178H246.46ZM230.14 178H227.14V181H230.14V178ZM230.14 124.624H233.14V121.624H230.14V124.624ZM212.86 124.624H209.86V127.624H212.86V124.624ZM212.86 109.84V106.84H209.86V109.84H212.86ZM263.74 109.84H266.74V106.84H263.74V109.84ZM263.74 124.624V127.624H266.74V124.624H263.74ZM246.46 124.624V121.624H243.46V124.624H246.46ZM246.46 175H230.14V181H246.46V175ZM233.14 178V124.624H227.14V178H233.14ZM230.14 121.624H212.86V127.624H230.14V121.624ZM215.86 124.624V109.84H209.86V124.624H215.86ZM212.86 112.84H263.74V106.84H212.86V112.84ZM260.74 109.84V124.624H266.74V109.84H260.74ZM263.74 121.624H246.46V127.624H263.74V121.624ZM243.46 124.624V178H249.46V124.624H243.46ZM315.927 137.296V140.296H318.927V137.296H315.927ZM315.927 109.84V106.84H312.927V109.84H315.927ZM332.246 109.84H335.246V106.84H332.246V109.84ZM332.246 178V181H335.246V178H332.246ZM315.927 178H312.927V181H315.927V178ZM315.927 151.696H318.927V148.696H315.927V151.696ZM289.335 151.696V148.696H286.335V151.696H289.335ZM289.335 178V181H292.335V178H289.335ZM273.014 178H270.014V181H273.014V178ZM273.014 109.84V106.84H270.014V109.84H273.014ZM289.335 109.84H292.335V106.84H289.335V109.84ZM289.335 137.296H286.335V140.296H289.335V137.296ZM318.927 137.296V109.84H312.927V137.296H318.927ZM315.927 112.84H332.246V106.84H315.927V112.84ZM329.246 109.84V178H335.246V109.84H329.246ZM332.246 175H315.927V181H332.246V175ZM318.927 178V151.696H312.927V178H318.927ZM315.927 148.696H289.335V154.696H315.927V148.696ZM286.335 151.696V178H292.335V151.696H286.335ZM289.335 175H273.014V181H289.335V175ZM276.014 178V109.84H270.014V178H276.014ZM273.014 112.84H289.335V106.84H273.014V112.84ZM286.335 109.84V137.296H292.335V109.84H286.335ZM289.335 140.296H315.927V134.296H289.335V140.296ZM400.043 178V181H406.251L402.393 176.136L400.043 178ZM380.171 178L377.765 179.792L378.664 181H380.171V178ZM359.723 150.544L362.129 148.752L356.766 151.049L359.723 150.544ZM360.491 178V181H363.491V178H360.491ZM344.171 178H341.171V181H344.171V178ZM344.171 109.84V106.84H341.171V109.84H344.171ZM379.787 153.04L379.367 150.069L373.687 150.871L377.586 155.079L379.787 153.04ZM360.491 124.624V121.624H357.491V124.624H360.491ZM360.491 141.616H357.491V144.616H360.491V141.616ZM400.043 175H380.171V181H400.043V175ZM382.577 176.208L362.129 148.752L357.317 152.336L377.765 179.792L382.577 176.208ZM356.766 151.049C357.383 154.664 357.491 162.768 357.491 178H363.491C363.491 163.088 363.407 154.296 362.68 150.039L356.766 151.049ZM360.491 175H344.171V181H360.491V175ZM347.171 178V109.84H341.171V178H347.171ZM344.171 112.84H373.835V106.84H344.171V112.84ZM373.835 112.84C380.948 112.84 386.368 114.642 389.961 117.704C393.488 120.708 395.603 125.218 395.603 131.44H401.603C401.603 123.742 398.918 117.452 393.852 113.136C388.854 108.878 381.89 106.84 373.835 106.84V112.84ZM395.603 131.44C395.603 137.975 393.268 142.282 390.214 145.117C387.08 148.027 382.993 149.558 379.367 150.069L380.206 156.011C384.74 155.37 390.062 153.445 394.296 149.515C398.609 145.51 401.603 139.593 401.603 131.44H395.603ZM377.586 155.079C381.132 158.905 386.592 165.868 397.692 179.864L402.393 176.136C391.413 162.292 385.738 155.047 381.987 151.001L377.586 155.079ZM385.283 132.976C385.283 129.651 384.171 126.68 381.803 124.577C379.485 122.518 376.337 121.624 372.875 121.624V127.624C375.365 127.624 376.921 128.266 377.819 129.063C378.667 129.816 379.283 131.021 379.283 132.976H385.283ZM372.875 121.624H360.491V127.624H372.875V121.624ZM357.491 124.624V141.616H363.491V124.624H357.491ZM360.491 144.616H372.875V138.616H360.491V144.616ZM372.875 144.616C376.381 144.616 379.54 143.65 381.848 141.514C384.186 139.351 385.283 136.327 385.283 132.976H379.283C379.283 135.001 378.651 136.297 377.773 137.11C376.865 137.95 375.32 138.616 372.875 138.616V144.616ZM453.884 109.84H456.884V106.84H453.884V109.84ZM453.884 124.624V127.624H456.884V124.624H453.884ZM425.085 124.624V121.624H422.085V124.624H425.085ZM425.085 136.624H422.085V139.624H425.085V136.624ZM449.085 136.624H452.085V133.624H449.085V136.624ZM449.085 151.024V154.024H452.085V151.024H449.085ZM425.085 151.024V148.024H422.085V151.024H425.085ZM425.085 163.216H422.085V166.216H425.085V163.216ZM453.884 163.216H456.884V160.216H453.884V163.216ZM453.884 178V181H456.884V178H453.884ZM408.764 178H405.764V181H408.764V178ZM408.764 109.84V106.84H405.764V109.84H408.764ZM450.884 109.84V124.624H456.884V109.84H450.884ZM453.884 121.624H425.085V127.624H453.884V121.624ZM422.085 124.624V136.624H428.085V124.624H422.085ZM425.085 139.624H449.085V133.624H425.085V139.624ZM446.085 136.624V151.024H452.085V136.624H446.085ZM449.085 148.024H425.085V154.024H449.085V148.024ZM422.085 151.024V163.216H428.085V151.024H422.085ZM425.085 166.216H453.884V160.216H425.085V166.216ZM450.884 163.216V178H456.884V163.216H450.884ZM453.884 175H408.764V181H453.884V175ZM411.764 178V109.84H405.764V178H411.764ZM408.764 112.84H453.884V106.84H408.764V112.84ZM508.259 109.84H511.259V106.84H508.259V109.84ZM508.259 124.624V127.624H511.259V124.624H508.259ZM479.46 124.624V121.624H476.46V124.624H479.46ZM479.46 136.624H476.46V139.624H479.46V136.624ZM503.46 136.624H506.46V133.624H503.46V136.624ZM503.46 151.024V154.024H506.46V151.024H503.46ZM479.46 151.024V148.024H476.46V151.024H479.46ZM479.46 163.216H476.46V166.216H479.46V163.216ZM508.259 163.216H511.259V160.216H508.259V163.216ZM508.259 178V181H511.259V178H508.259ZM463.139 178H460.139V181H463.139V178ZM463.139 109.84V106.84H460.139V109.84H463.139ZM505.259 109.84V124.624H511.259V109.84H505.259ZM508.259 121.624H479.46V127.624H508.259V121.624ZM476.46 124.624V136.624H482.46V124.624H476.46ZM479.46 139.624H503.46V133.624H479.46V139.624ZM500.46 136.624V151.024H506.46V136.624H500.46ZM503.46 148.024H479.46V154.024H503.46V148.024ZM476.46 151.024V163.216H482.46V151.024H476.46ZM479.46 166.216H508.259V160.216H479.46V166.216ZM505.259 163.216V178H511.259V163.216H505.259ZM508.259 175H463.139V181H508.259V175ZM466.139 178V109.84H460.139V178H466.139ZM463.139 112.84H508.259V106.84H463.139V112.84Z" fill="black" mask="url(#path-2-outside-1_60_19)"/>
</svg>
