<svg width="439" height="272" viewBox="0 0 439 272" fill="none" xmlns="http://www.w3.org/2000/svg">
<path d="M173.419 43.2889L164.563 82.752L119.27 77.3046L134.848 112.113L88.7526 126.948L124.591 147.775L90.043 178.918L136.538 180.182L122.796 219.288L167.49 200.652L178.235 237.242L209.152 203.699L241.505 227.969L250.361 188.506L295.654 193.953L280.076 159.145L326.171 144.31L290.333 123.483L324.881 92.34L278.386 91.0754L292.128 51.9696L247.434 70.6059L236.689 34.0157L205.772 67.5593L173.419 43.2889Z" fill="#ED1C24"/>
<mask id="path-2-outside-1_60_20" maskUnits="userSpaceOnUse" x="3" y="105" width="436" height="77" fill="black">
<rect fill="white" x="3" y="105" width="436" height="77"/>
<path d="M30.5525 178H6.2645V109.84H30.5525C52.8245 109.84 65.8805 124.816 65.8805 143.92C65.8805 163.024 52.8245 178 30.5525 178ZM22.5845 124.624V163.216H30.5525C41.4965 163.216 49.5605 157.552 49.5605 143.92C49.5605 130.288 41.4965 124.624 30.5525 124.624H22.5845ZM136.285 178H118.621L114.109 164.368H89.7253L85.3093 178H68.4133L92.8933 109.84H111.517L136.285 178ZM93.9493 150.928H109.693C103.549 132.112 101.917 125.872 101.629 120.88C101.341 125.872 99.9013 132.208 93.9493 150.928ZM171.549 109.84H189.789L165.981 150.832V178H149.661V150.832L125.853 109.84H144.477C152.445 124.048 156.381 131.728 158.013 137.008C159.741 131.728 163.677 124.048 171.549 109.84ZM246.335 178H230.015V124.624H212.735V109.84H263.615V124.624H246.335V178ZM345.85 109.84H362.362L344.314 178H325.498C318.586 149.872 315.898 137.968 315.226 129.808C314.458 138.256 311.578 149.968 304.186 178H285.754L267.898 109.84H285.178C291.609 137.296 294.682 150.832 295.93 159.376C296.986 150.352 299.962 137.584 306.682 109.84H324.538C330.97 135.952 334.234 149.584 335.578 158.032C336.634 149.392 339.61 136.336 345.85 109.84ZM400.306 178.96C379.954 178.96 365.266 164.272 365.266 143.92C365.266 123.568 379.954 108.88 400.306 108.88C420.658 108.88 435.346 123.568 435.346 143.92C435.346 164.272 420.658 178.96 400.306 178.96ZM400.306 163.6C411.538 163.6 419.026 154.672 419.026 143.92C419.026 133.168 411.538 124.24 400.306 124.24C389.074 124.24 381.586 133.168 381.586 143.92C381.586 154.672 389.074 163.6 400.306 163.6Z"/>
</mask>
<path d="M30.5525 178H6.2645V109.84H30.5525C52.8245 109.84 65.8805 124.816 65.8805 143.92C65.8805 163.024 52.8245 178 30.5525 178ZM22.5845 124.624V163.216H30.5525C41.4965 163.216 49.5605 157.552 49.5605 143.92C49.5605 130.288 41.4965 124.624 30.5525 124.624H22.5845ZM136.285 178H118.621L114.109 164.368H89.7253L85.3093 178H68.4133L92.8933 109.84H111.517L136.285 178ZM93.9493 150.928H109.693C103.549 132.112 101.917 125.872 101.629 120.88C101.341 125.872 99.9013 132.208 93.9493 150.928ZM171.549 109.84H189.789L165.981 150.832V178H149.661V150.832L125.853 109.84H144.477C152.445 124.048 156.381 131.728 158.013 137.008C159.741 131.728 163.677 124.048 171.549 109.84ZM246.335 178H230.015V124.624H212.735V109.84H263.615V124.624H246.335V178ZM345.85 109.84H362.362L344.314 178H325.498C318.586 149.872 315.898 137.968 315.226 129.808C314.458 138.256 311.578 149.968 304.186 178H285.754L267.898 109.84H285.178C291.609 137.296 294.682 150.832 295.93 159.376C296.986 150.352 299.962 137.584 306.682 109.84H324.538C330.97 135.952 334.234 149.584 335.578 158.032C336.634 149.392 339.61 136.336 345.85 109.84ZM400.306 178.96C379.954 178.96 365.266 164.272 365.266 143.92C365.266 123.568 379.954 108.88 400.306 108.88C420.658 108.88 435.346 123.568 435.346 143.92C435.346 164.272 420.658 178.96 400.306 178.96ZM400.306 163.6C411.538 163.6 419.026 154.672 419.026 143.92C419.026 133.168 411.538 124.24 400.306 124.24C389.074 124.24 381.586 133.168 381.586 143.92C381.586 154.672 389.074 163.6 400.306 163.6Z" fill="white"/>
<path d="M6.2645 178H3.2645V181H6.2645V178ZM6.2645 109.84V106.84H3.2645V109.84H6.2645ZM22.5845 124.624V121.624H19.5845V124.624H22.5845ZM22.5845 163.216H19.5845V166.216H22.5845V163.216ZM30.5525 175H6.2645V181H30.5525V175ZM9.2645 178V109.84H3.2645V178H9.2645ZM6.2645 112.84H30.5525V106.84H6.2645V112.84ZM30.5525 112.84C40.9907 112.84 49.0181 116.333 54.4326 121.823C59.8609 127.326 62.8805 135.057 62.8805 143.92H68.8805C68.8805 133.679 65.3721 124.37 58.7044 117.609C52.0229 110.835 42.3863 106.84 30.5525 106.84V112.84ZM62.8805 143.92C62.8805 152.783 59.8609 160.514 54.4326 166.017C49.0181 171.507 40.9907 175 30.5525 175V181C42.3863 181 52.0229 177.005 58.7044 170.231C65.3721 163.47 68.8805 154.161 68.8805 143.92H62.8805ZM19.5845 124.624V163.216H25.5845V124.624H19.5845ZM22.5845 166.216H30.5525V160.216H22.5845V166.216ZM30.5525 166.216C36.5061 166.216 42.0841 164.675 46.194 160.886C50.3482 157.056 52.5605 151.338 52.5605 143.92H46.5605C46.5605 150.134 44.7408 154.064 42.127 156.474C39.4689 158.925 35.5429 160.216 30.5525 160.216V166.216ZM52.5605 143.92C52.5605 136.502 50.3482 130.784 46.194 126.954C42.0841 123.165 36.5061 121.624 30.5525 121.624V127.624C35.5429 127.624 39.4689 128.915 42.127 131.366C44.7408 133.776 46.5605 137.706 46.5605 143.92H52.5605ZM30.5525 121.624H22.5845V127.624H30.5525V121.624ZM136.285 178V181H140.567L139.105 176.975L136.285 178ZM118.621 178L115.773 178.943L116.454 181H118.621V178ZM114.109 164.368L116.957 163.425L116.276 161.368H114.109V164.368ZM89.7253 164.368V161.368H87.5436L86.8713 163.443L89.7253 164.368ZM85.3092 178V181H87.4909L88.1632 178.925L85.3092 178ZM68.4133 178L65.5898 176.986L64.1482 181H68.4133V178ZM92.8932 109.84V106.84H90.7831L90.0698 108.826L92.8932 109.84ZM111.517 109.84L114.337 108.815L113.619 106.84H111.517V109.84ZM93.9492 150.928L91.0903 150.019L89.8474 153.928H93.9492V150.928ZM109.693 150.928V153.928H113.829L112.545 149.997L109.693 150.928ZM101.629 120.88L104.624 120.707L98.6342 120.707L101.629 120.88ZM136.285 175H118.621V181H136.285V175ZM121.469 177.057L116.957 163.425L111.261 165.311L115.773 178.943L121.469 177.057ZM114.109 161.368H89.7253V167.368H114.109V161.368ZM86.8713 163.443L82.4553 177.075L88.1632 178.925L92.5792 165.293L86.8713 163.443ZM85.3092 175H68.4133V181H85.3092V175ZM71.2367 179.014L95.7167 110.854L90.0698 108.826L65.5898 176.986L71.2367 179.014ZM92.8932 112.84H111.517V106.84H92.8932V112.84ZM108.698 110.865L133.466 179.025L139.105 176.975L114.337 108.815L108.698 110.865ZM93.9492 153.928H109.693V147.928H93.9492V153.928ZM112.545 149.997C106.361 131.059 104.885 125.228 104.624 120.707L98.6342 121.053C98.9494 126.516 100.737 133.165 106.841 151.859L112.545 149.997ZM98.6342 120.707C98.3716 125.259 97.0623 131.236 91.0903 150.019L96.8082 151.837C102.74 133.18 104.311 126.485 104.624 121.053L98.6342 120.707ZM171.549 109.84V106.84H169.781L168.925 108.386L171.549 109.84ZM189.789 109.84L192.383 111.347L195 106.84H189.789V109.84ZM165.981 150.832L163.387 149.325L162.981 150.024V150.832H165.981ZM165.981 178V181H168.981V178H165.981ZM149.661 178H146.661V181H149.661V178ZM149.661 150.832H152.661V150.024L152.255 149.325L149.661 150.832ZM125.853 109.84V106.84H120.641L123.259 111.347L125.853 109.84ZM144.477 109.84L147.093 108.373L146.234 106.84H144.477V109.84ZM158.013 137.008L155.147 137.894L157.931 146.903L160.864 137.941L158.013 137.008ZM171.549 112.84H189.789V106.84H171.549V112.84ZM187.195 108.333L163.387 149.325L168.575 152.339L192.383 111.347L187.195 108.333ZM162.981 150.832V178H168.981V150.832H162.981ZM165.981 175H149.661V181H165.981V175ZM152.661 178V150.832H146.661V178H152.661ZM152.255 149.325L128.447 108.333L123.259 111.347L147.067 152.339L152.255 149.325ZM125.853 112.84H144.477V106.84H125.853V112.84ZM141.86 111.307C149.874 125.597 153.628 132.98 155.147 137.894L160.879 136.122C159.134 130.476 155.016 122.499 147.093 108.373L141.86 111.307ZM160.864 137.941C162.485 132.988 166.259 125.577 174.173 111.294L168.925 108.386C161.094 122.519 156.997 130.468 155.162 136.075L160.864 137.941ZM246.335 178V181H249.335V178H246.335ZM230.015 178H227.015V181H230.015V178ZM230.015 124.624H233.015V121.624H230.015V124.624ZM212.735 124.624H209.735V127.624H212.735V124.624ZM212.735 109.84V106.84H209.735V109.84H212.735ZM263.615 109.84H266.615V106.84H263.615V109.84ZM263.615 124.624V127.624H266.615V124.624H263.615ZM246.335 124.624V121.624H243.335V124.624H246.335ZM246.335 175H230.015V181H246.335V175ZM233.015 178V124.624H227.015V178H233.015ZM230.015 121.624H212.735V127.624H230.015V121.624ZM215.735 124.624V109.84H209.735V124.624H215.735ZM212.735 112.84H263.615V106.84H212.735V112.84ZM260.615 109.84V124.624H266.615V109.84H260.615ZM263.615 121.624H246.335V127.624H263.615V121.624ZM243.335 124.624V178H249.335V124.624H243.335ZM345.849 109.84V106.84H343.474L342.929 109.152L345.849 109.84ZM362.362 109.84L365.262 110.608L366.259 106.84H362.362V109.84ZM344.314 178V181H346.623L347.214 178.768L344.314 178ZM325.497 178L322.584 178.716L323.145 181H325.497V178ZM315.225 129.808L318.215 129.562L312.238 129.536L315.225 129.808ZM304.185 178V181H306.497L307.086 178.765L304.185 178ZM285.754 178L282.851 178.76L283.438 181H285.754V178ZM267.897 109.84V106.84H264.01L264.995 110.6L267.897 109.84ZM285.177 109.84L288.098 109.156L287.556 106.84H285.177V109.84ZM295.93 159.376L292.961 159.81L298.909 159.725L295.93 159.376ZM306.682 109.84V106.84H304.321L303.766 109.134L306.682 109.84ZM324.538 109.84L327.45 109.122L326.888 106.84H324.538V109.84ZM335.578 158.032L332.615 158.503L338.555 158.396L335.578 158.032ZM345.849 112.84H362.362V106.84H345.849V112.84ZM359.461 109.072L341.413 177.232L347.214 178.768L365.262 110.608L359.461 109.072ZM344.314 175H325.497V181H344.314V175ZM328.411 177.284C321.473 149.049 318.863 137.425 318.215 129.562L312.236 130.054C312.932 138.511 315.698 150.695 322.584 178.716L328.411 177.284ZM312.238 129.536C311.498 137.671 308.707 149.087 301.285 177.235L307.086 178.765C314.448 150.849 317.417 138.84 318.213 130.08L312.238 129.536ZM304.185 175H285.754V181H304.185V175ZM288.656 177.24L270.8 109.08L264.995 110.6L282.851 178.76L288.656 177.24ZM267.897 112.84H285.177V106.84H267.897V112.84ZM282.257 110.524C288.703 138.044 291.736 151.424 292.961 159.81L298.898 158.942C297.627 150.24 294.516 136.548 288.098 109.156L282.257 110.524ZM298.909 159.725C299.939 150.927 302.856 138.378 309.597 110.546L303.766 109.134C297.067 136.79 294.032 149.777 292.95 159.027L298.909 159.725ZM306.682 112.84H324.538V106.84H306.682V112.84ZM321.625 110.558C328.072 136.732 331.296 150.211 332.615 158.503L338.54 157.561C337.171 148.957 333.867 135.172 327.45 109.122L321.625 110.558ZM338.555 158.396C339.586 149.962 342.51 137.107 348.77 110.528L342.929 109.152C336.709 135.565 333.681 148.822 332.6 157.668L338.555 158.396ZM400.306 175.96C381.611 175.96 368.266 162.615 368.266 143.92H362.266C362.266 165.929 378.297 181.96 400.306 181.96V175.96ZM368.266 143.92C368.266 125.225 381.611 111.88 400.306 111.88V105.88C378.297 105.88 362.266 121.911 362.266 143.92H368.266ZM400.306 111.88C419.001 111.88 432.346 125.225 432.346 143.92H438.346C438.346 121.911 422.315 105.88 400.306 105.88V111.88ZM432.346 143.92C432.346 162.615 419.001 175.96 400.306 175.96V181.96C422.315 181.96 438.346 165.929 438.346 143.92H432.346ZM400.306 166.6C413.437 166.6 422.026 156.076 422.026 143.92H416.026C416.026 153.268 409.639 160.6 400.306 160.6V166.6ZM422.026 143.92C422.026 131.764 413.437 121.24 400.306 121.24V127.24C409.639 127.24 416.026 134.572 416.026 143.92H422.026ZM400.306 121.24C387.175 121.24 378.586 131.764 378.586 143.92H384.586C384.586 134.572 390.973 127.24 400.306 127.24V121.24ZM378.586 143.92C378.586 156.076 387.175 166.6 400.306 166.6V160.6C390.973 160.6 384.586 153.268 384.586 143.92H378.586Z" fill="black" mask="url(#path-2-outside-1_60_20)"/>
</svg>
